<?xml version="1.0" encoding="UTF-8" standalone="no"?>
<svg width="142px" height="203px" viewBox="0 0 142 203" version="1.1" xmlns="http://www.w3.org/2000/svg" xmlns:xlink="http://www.w3.org/1999/xlink" xmlns:sketch="http://www.bohemiancoding.com/sketch/ns">
    <!-- Generator: Sketch 3.5.2 (25235) - http://www.bohemiancoding.com/sketch -->
    <title>droplets</title>
    <desc>Created with Sketch.</desc>
    <defs></defs>
    <g id="Page-1" stroke="none" stroke-width="1" fill="none" fill-rule="evenodd" sketch:type="MSPage">
        <g id="styling" sketch:type="MSArtboardGroup" transform="translate(-117.000000, -53.000000)">
            <g id="droplets" sketch:type="MSLayerGroup" transform="translate(138.000000, 72.000000)">
                <path d="M50,162 C77.6142375,162 100,139.641168 100,112.06015 C100,84.479133 50,-3.12348406e-15 50,0 C50,3.12348406e-15 0,84.479133 0,112.06015 C0,139.641168 22.3857625,162 50,162 Z" id="droplet-copy-2" fill="#F9F3E8" sketch:type="MSShapeGroup"></path>
                <path d="M49.5,137 C68.0015391,137 83,121.956094 83,103.398496 C83,84.8408981 49.5,28 49.5,28 C49.5,28 16,84.8408981 16,103.398496 C16,121.956094 30.9984609,137 49.5,137 Z" id="droplet-copy" fill="#F4EADF" sketch:type="MSShapeGroup"></path>
                <path d="M50,111 C59.9411255,111 68,102.856968 68,92.8120301 C68,82.7670917 50,52 50,52 C50,52 32,82.7670917 32,92.8120301 C32,102.856968 40.0588745,111 50,111 Z" id="droplet" fill="#EADFD1" sketch:type="MSShapeGroup"></path>
            </g>
        </g>
    </g>
</svg>